STARTFONT 2.1
FONT -FontForge-Barlow Condensed Thin-Light-R-Condensed-Thin--28-200-100-100-P-101-ISO10646-1
SIZE 20 100 100
FONTBOUNDINGBOX 20 29 0 -6
COMMENT "Generated by fontforge, http://fontforge.sourceforge.net"
COMMENT "Copyright 2017 The Barlow Project Authors (https://github.com/jpt/barlow)"
STARTPROPERTIES 39
FOUNDRY "FontForge"
FAMILY_NAME "Barlow Condensed Thin"
WEIGHT_NAME "Light"
SLANT "R"
SETWIDTH_NAME "Condensed"
ADD_STYLE_NAME "Thin"
PIXEL_SIZE 28
POINT_SIZE 200
RESOLUTION_X 100
RESOLUTION_Y 100
SPACING "P"
AVERAGE_WIDTH 101
CHARSET_REGISTRY "ISO10646"
CHARSET_ENCODING "1"
FONTNAME_REGISTRY ""
CHARSET_COLLECTIONS "ISO10646-1"
FONT_NAME "BarlowCondensed-Thin"
FACE_NAME "Barlow Condensed Thin"
COPYRIGHT "Copyright 2017 The Barlow Project Authors (https://github.com/jpt/barlow)"
FONT_VERSION "1.408"
FONT_ASCENT 22
FONT_DESCENT 6
UNDERLINE_POSITION -3
UNDERLINE_THICKNESS 2
X_HEIGHT 13
CAP_HEIGHT 19
RAW_ASCENT 800
RAW_DESCENT 200
NORM_SPACE 6
RELATIVE_WEIGHT 25
RELATIVE_SETWIDTH 30
SUPERSCRIPT_X 0
SUPERSCRIPT_Y 9
SUPERSCRIPT_SIZE 16
SUBSCRIPT_X 0
SUBSCRIPT_Y 2
SUBSCRIPT_SIZE 16
AVG_LOWERCASE_WIDTH 101
AVG_UPPERCASE_WIDTH 117
ENDPROPERTIES
CHARS 99
STARTCHAR space
ENCODING 32
SWIDTH 200 0
DWIDTH 6 0
BBX 1 1 3 0
BITMAP
00
ENDCHAR
STARTCHAR exclam
ENCODING 33
SWIDTH 235 0
DWIDTH 7 0
BBX 1 19 3 1
BITMAP
80
80
80
80
80
80
80
80
80
80
80
80
80
00
00
00
00
80
80
ENDCHAR
STARTCHAR quotedbl
ENCODING 34
SWIDTH 170 0
DWIDTH 5 0
BBX 4 6 1 14
BITMAP
90
90
90
90
90
90
ENDCHAR
STARTCHAR numbersign
ENCODING 35
SWIDTH 573 0
DWIDTH 16 0
BBX 12 18 2 1
BITMAP
1040
1040
1040
1040
1040
7FF0
2040
2080
2080
2080
2080
2080
FFE0
4080
4100
4100
4100
4100
ENDCHAR
STARTCHAR dollar
ENCODING 36
SWIDTH 400 0
DWIDTH 11 0
BBX 9 24 1 -2
BITMAP
0800
0800
3E00
4100
C080
8080
8080
8080
4000
2000
1000
0800
0400
0200
0100
0080
8080
8080
4080
4100
6300
3C00
0800
0800
ENDCHAR
STARTCHAR percent
ENCODING 37
SWIDTH 790 0
DWIDTH 22 0
BBX 18 20 2 0
BITMAP
3C0200
420400
810800
810800
811000
421000
3C2000
002000
004000
004000
008000
008000
010000
010F00
021080
042040
042040
082040
081080
100F00
ENDCHAR
STARTCHAR ampersand
ENCODING 38
SWIDTH 507 0
DWIDTH 14 0
BBX 12 20 1 0
BITMAP
0E00
1100
2080
2080
2080
2100
1100
1200
0C00
0800
1C00
2200
4200
C120
80A0
80C0
8040
80E0
4120
7E10
ENDCHAR
STARTCHAR quotesingle
ENCODING 39
SWIDTH 89 0
DWIDTH 2 0
BBX 1 5 1 15
BITMAP
80
80
80
80
80
ENDCHAR
STARTCHAR parenleft
ENCODING 40
SWIDTH 169 0
DWIDTH 5 0
BBX 4 25 1 -3
BITMAP
10
20
20
20
40
40
40
40
40
40
40
40
80
80
40
40
40
40
40
40
40
20
20
20
10
ENDCHAR
STARTCHAR parenright
ENCODING 41
SWIDTH 169 0
DWIDTH 5 0
BBX 3 25 1 -3
BITMAP
80
40
40
40
20
20
20
20
20
20
20
20
20
20
20
20
20
20
20
20
20
40
40
40
80
ENDCHAR
STARTCHAR asterisk
ENCODING 42
SWIDTH 360 0
DWIDTH 10 0
BBX 8 10 1 11
BITMAP
10
10
97
5C
18
34
D2
10
10
10
ENDCHAR
STARTCHAR plus
ENCODING 43
SWIDTH 444 0
DWIDTH 12 0
BBX 10 11 1 4
BITMAP
0800
0800
0800
0800
0800
FFC0
0800
0800
0800
0800
0800
ENDCHAR
STARTCHAR comma
ENCODING 44
SWIDTH 158 0
DWIDTH 4 0
BBX 2 6 1 -1
BITMAP
40
40
40
40
40
80
ENDCHAR
STARTCHAR hyphen
ENCODING 45
SWIDTH 303 0
DWIDTH 8 0
BBX 6 1 1 9
BITMAP
FC
ENDCHAR
STARTCHAR period
ENCODING 46
SWIDTH 170 0
DWIDTH 5 0
BBX 2 2 2 1
BITMAP
C0
C0
ENDCHAR
STARTCHAR slash
ENCODING 47
SWIDTH 286 0
DWIDTH 8 0
BBX 6 20 1 0
BITMAP
04
04
08
08
08
08
10
10
10
10
20
20
20
20
20
40
40
40
40
80
ENDCHAR
STARTCHAR zero
ENCODING 48
SWIDTH 439 0
DWIDTH 12 0
BBX 9 20 2 0
BITMAP
3E00
4100
8080
8080
8080
8080
8080
8080
8080
8080
8080
8080
8080
8080
8080
8080
8080
8080
4100
3E00
ENDCHAR
STARTCHAR one
ENCODING 49
SWIDTH 239 0
DWIDTH 7 0
BBX 5 20 1 0
BITMAP
18
68
88
08
08
08
08
08
08
08
08
08
08
08
08
08
08
08
08
08
ENDCHAR
STARTCHAR two
ENCODING 50
SWIDTH 380 0
DWIDTH 11 0
BBX 9 20 1 0
BITMAP
3C00
4200
C100
8100
8100
8100
0100
0100
0200
0200
0400
0400
0800
1000
1000
2000
2000
4000
4000
7F80
ENDCHAR
STARTCHAR three
ENCODING 51
SWIDTH 392 0
DWIDTH 11 0
BBX 8 20 2 0
BITMAP
FF
01
02
02
04
04
08
08
1E
01
01
01
01
01
81
81
81
81
42
3C
ENDCHAR
STARTCHAR four
ENCODING 52
SWIDTH 375 0
DWIDTH 10 0
BBX 9 20 1 0
BITMAP
0400
0400
0800
0800
1000
1000
1000
2000
2100
2100
4100
4100
8100
FF80
0100
0100
0100
0100
0100
0100
ENDCHAR
STARTCHAR five
ENCODING 53
SWIDTH 391 0
DWIDTH 11 0
BBX 8 20 2 0
BITMAP
FF
80
80
80
80
80
80
80
BC
C2
81
01
01
01
01
81
81
81
42
3C
ENDCHAR
STARTCHAR six
ENCODING 54
SWIDTH 392 0
DWIDTH 11 0
BBX 8 20 2 0
BITMAP
3C
42
81
81
81
80
80
80
BC
C2
81
81
81
81
81
81
81
81
42
3C
ENDCHAR
STARTCHAR seven
ENCODING 55
SWIDTH 342 0
DWIDTH 10 0
BBX 9 20 1 0
BITMAP
7F80
8080
8080
0100
0100
0200
0200
0200
0200
0400
0400
1E00
0400
0C00
0800
0800
0800
1000
1000
1000
ENDCHAR
STARTCHAR eight
ENCODING 56
SWIDTH 412 0
DWIDTH 12 0
BBX 8 20 2 0
BITMAP
3C
42
81
81
81
81
81
81
42
3C
42
81
81
81
81
81
81
81
42
3C
ENDCHAR
STARTCHAR nine
ENCODING 57
SWIDTH 385 0
DWIDTH 11 0
BBX 8 20 2 0
BITMAP
3C
42
81
81
81
81
81
81
81
81
43
3D
01
01
01
41
41
41
22
1C
ENDCHAR
STARTCHAR colon
ENCODING 58
SWIDTH 173 0
DWIDTH 5 0
BBX 2 11 2 1
BITMAP
C0
C0
00
00
00
00
00
00
00
C0
C0
ENDCHAR
STARTCHAR semicolon
ENCODING 59
SWIDTH 170 0
DWIDTH 5 0
BBX 3 14 1 -1
BITMAP
60
60
00
00
00
00
00
00
40
40
40
40
40
80
ENDCHAR
STARTCHAR less
ENCODING 60
SWIDTH 444 0
DWIDTH 12 0
BBX 11 12 1 2
BITMAP
0060
00C0
0300
0C00
3000
C000
C000
3000
0C00
0300
00C0
0020
ENDCHAR
STARTCHAR equal
ENCODING 61
SWIDTH 444 0
DWIDTH 12 0
BBX 1 1 18 6
BITMAP
00
ENDCHAR
STARTCHAR greater
ENCODING 62
SWIDTH 444 0
DWIDTH 12 0
BBX 11 12 1 2
BITMAP
8000
6000
1800
0600
0180
0060
00E0
0180
0600
1800
6000
8000
ENDCHAR
STARTCHAR question
ENCODING 63
SWIDTH 330 0
DWIDTH 9 0
BBX 8 19 1 1
BITMAP
3C
42
82
81
81
81
02
02
06
04
08
10
10
10
00
00
00
18
18
ENDCHAR
STARTCHAR at
ENCODING 64
SWIDTH 764 0
DWIDTH 21 0
BBX 19 19 1 -2
BITMAP
002000
03FE00
0C0380
100080
204040
21F040
431040
421020
421020
821040
821040
821040
821080
423080
41C000
400000
200000
100400
0FF800
ENDCHAR
STARTCHAR A
ENCODING 65
SWIDTH 367 0
DWIDTH 10 0
BBX 9 20 1 0
BITMAP
0800
1400
1400
1400
1400
2200
2200
2200
2200
2200
4100
4100
4100
4100
FF80
8080
8080
8080
8080
8080
ENDCHAR
STARTCHAR B
ENCODING 66
SWIDTH 436 0
DWIDTH 12 0
BBX 9 20 2 0
BITMAP
F800
8600
8100
8080
8080
8080
8080
8080
8100
FE00
8200
8100
8080
8080
8080
8080
8080
8100
8600
F800
ENDCHAR
STARTCHAR C
ENCODING 67
SWIDTH 435 0
DWIDTH 12 0
BBX 9 20 2 0
BITMAP
3E00
4100
8080
8080
8080
8000
8000
8000
8000
8000
8000
8000
8000
8000
8000
8080
8080
8080
4100
3E00
ENDCHAR
STARTCHAR D
ENCODING 68
SWIDTH 459 0
DWIDTH 13 0
BBX 9 20 2 0
BITMAP
7800
8600
8100
8080
8080
8080
8080
8080
8080
8080
8080
8080
8080
8080
8080
8080
8080
8100
8600
7800
ENDCHAR
STARTCHAR E
ENCODING 69
SWIDTH 424 0
DWIDTH 12 0
BBX 9 20 2 0
BITMAP
FF80
8000
8000
8000
8000
8000
8000
8000
8000
FC00
8000
8000
8000
8000
8000
8000
8000
8000
8000
FF80
ENDCHAR
STARTCHAR F
ENCODING 70
SWIDTH 394 0
DWIDTH 11 0
BBX 8 20 2 0
BITMAP
FF
80
80
80
80
80
80
80
80
FC
80
80
80
80
80
80
80
80
80
80
ENDCHAR
STARTCHAR G
ENCODING 71
SWIDTH 441 0
DWIDTH 12 0
BBX 9 20 2 0
BITMAP
3E00
4100
8080
8080
8080
8080
8000
8000
8000
8000
8F80
8080
8080
8080
8080
8080
8080
8080
4100
3E00
ENDCHAR
STARTCHAR H
ENCODING 72
SWIDTH 467 0
DWIDTH 13 0
BBX 9 20 2 0
BITMAP
8080
8080
8080
8080
8080
8080
8080
8080
8080
FF80
8080
8080
8080
8080
8080
8080
8080
8080
8080
8080
ENDCHAR
STARTCHAR I
ENCODING 73
SWIDTH 206 0
DWIDTH 6 0
BBX 1 20 3 0
BITMAP
80
80
80
80
80
80
80
80
80
80
80
80
80
80
80
80
80
80
80
80
ENDCHAR
STARTCHAR J
ENCODING 74
SWIDTH 410 0
DWIDTH 11 0
BBX 9 20 1 0
BITMAP
0080
0080
0080
0080
0080
0080
0080
0080
0080
0080
0080
0080
0080
0080
8080
8080
8080
8080
4100
3E00
ENDCHAR
STARTCHAR K
ENCODING 75
SWIDTH 429 0
DWIDTH 12 0
BBX 9 20 2 0
BITMAP
8100
8100
8200
8200
8400
8400
8800
8800
9000
B000
C800
8800
8400
8400
8200
8200
8100
8100
8080
8080
ENDCHAR
STARTCHAR L
ENCODING 76
SWIDTH 378 0
DWIDTH 11 0
BBX 8 20 2 0
BITMAP
80
80
80
80
80
80
80
80
80
80
80
80
80
80
80
80
80
80
80
FF
ENDCHAR
STARTCHAR M
ENCODING 77
SWIDTH 505 0
DWIDTH 14 0
BBX 10 20 2 0
BITMAP
4040
4080
C0C0
A140
A140
9240
9240
8A40
8C40
8440
8040
8040
8040
8040
8040
8040
8040
8040
8040
8040
ENDCHAR
STARTCHAR N
ENCODING 78
SWIDTH 481 0
DWIDTH 13 0
BBX 9 20 2 0
BITMAP
C080
C080
A080
A080
A080
9080
9080
9080
8880
8880
8880
8480
8480
8480
8280
8280
8280
8180
8180
8180
ENDCHAR
STARTCHAR O
ENCODING 79
SWIDTH 446 0
DWIDTH 12 0
BBX 9 20 2 0
BITMAP
3E00
4100
8080
8080
8080
8080
8080
8080
8080
8080
8080
8080
8080
8080
8080
8080
8080
8080
4100
3E00
ENDCHAR
STARTCHAR P
ENCODING 80
SWIDTH 429 0
DWIDTH 12 0
BBX 9 20 2 0
BITMAP
FE00
8300
8100
8180
8080
8080
8080
8180
8300
FE00
8000
8000
8000
8000
8000
8000
8000
8000
8000
8000
ENDCHAR
STARTCHAR Q
ENCODING 81
SWIDTH 433 0
DWIDTH 12 0
BBX 9 23 2 -3
BITMAP
3E00
4100
8080
8080
8080
8080
8080
8080
8080
8080
8080
8080
8080
8080
8080
8080
8080
8080
4100
3E00
0800
0800
0800
ENDCHAR
STARTCHAR R
ENCODING 82
SWIDTH 427 0
DWIDTH 12 0
BBX 9 20 2 0
BITMAP
F800
8700
8100
8080
8080
8080
8080
8100
8100
FE00
8400
8400
8200
8200
8200
8100
8100
8100
8080
8080
ENDCHAR
STARTCHAR S
ENCODING 83
SWIDTH 400 0
DWIDTH 11 0
BBX 9 20 1 0
BITMAP
3E00
4100
C080
8080
8080
8080
4000
2000
1000
0800
0400
0200
0100
0080
8080
8080
4080
4100
6300
3C00
ENDCHAR
STARTCHAR T
ENCODING 84
SWIDTH 396 0
DWIDTH 11 0
BBX 9 20 1 0
BITMAP
FF80
0800
0800
0800
0800
0800
0800
0800
0800
0800
0800
0800
0800
0800
0800
0800
0800
0800
0800
0800
ENDCHAR
STARTCHAR U
ENCODING 85
SWIDTH 474 0
DWIDTH 13 0
BBX 9 20 2 0
BITMAP
8080
8080
8080
8080
8080
8080
8080
8080
8080
8080
8080
8080
8080
8080
8080
8080
8080
8080
6300
1C00
ENDCHAR
STARTCHAR V
ENCODING 86
SWIDTH 464 0
DWIDTH 13 0
BBX 11 20 1 0
BITMAP
8020
4040
4040
4040
4040
2040
2080
2080
2080
2080
1100
1100
1100
1100
1100
0A00
0A00
0A00
0400
0400
ENDCHAR
STARTCHAR W
ENCODING 87
SWIDTH 571 0
DWIDTH 16 0
BBX 17 20 0 0
BITMAP
800080
C00180
408100
408100
408100
414100
214200
214200
214200
214200
214200
122400
122400
122400
122400
122400
122400
0A2800
0E3800
041000
ENDCHAR
STARTCHAR X
ENCODING 88
SWIDTH 410 0
DWIDTH 11 0
BBX 8 20 2 0
BITMAP
81
81
81
42
42
24
24
24
18
18
18
18
24
24
24
42
42
81
81
81
ENDCHAR
STARTCHAR Y
ENCODING 89
SWIDTH 395 0
DWIDTH 11 0
BBX 9 20 1 0
BITMAP
8080
8080
8080
4100
4100
4100
2200
1400
1C00
0800
0800
0800
0800
0800
0800
0800
0800
0800
0800
0800
ENDCHAR
STARTCHAR Z
ENCODING 90
SWIDTH 385 0
DWIDTH 11 0
BBX 8 20 2 0
BITMAP
FF
01
02
02
04
04
08
08
08
10
10
20
20
20
40
40
80
80
80
FF
ENDCHAR
STARTCHAR bracketleft
ENCODING 91
SWIDTH 278 0
DWIDTH 8 0
BBX 5 25 2 -3
BITMAP
F8
80
80
80
80
80
80
80
80
80
80
80
80
80
80
80
80
80
80
80
80
80
80
80
F8
ENDCHAR
STARTCHAR backslash
ENCODING 92
SWIDTH 286 0
DWIDTH 8 0
BBX 6 20 1 0
BITMAP
80
40
40
40
40
20
20
20
20
10
10
10
10
10
08
08
08
08
04
04
ENDCHAR
STARTCHAR bracketright
ENCODING 93
SWIDTH 278 0
DWIDTH 8 0
BBX 5 25 1 -3
BITMAP
F8
08
08
08
08
08
08
08
08
08
08
08
08
08
08
08
08
08
08
08
08
08
08
08
F8
ENDCHAR
STARTCHAR asciicircum
ENCODING 94
SWIDTH 381 0
DWIDTH 11 0
BBX 9 11 1 9
BITMAP
0800
0C00
1400
1200
1200
2200
2100
4100
4100
4080
8080
ENDCHAR
STARTCHAR underscore
ENCODING 95
SWIDTH 350 0
DWIDTH 10 0
BBX 8 1 1 0
BITMAP
FF
ENDCHAR
STARTCHAR grave
ENCODING 96
SWIDTH 157 0
DWIDTH 4 0
BBX 2 4 1 16
BITMAP
80
80
40
40
ENDCHAR
STARTCHAR a
ENCODING 97
SWIDTH 392 0
DWIDTH 11 0
BBX 9 15 1 0
BITMAP
1C00
2200
4100
4100
0100
0100
0100
3F00
4100
8100
8100
8100
8180
4300
3D00
ENDCHAR
STARTCHAR b
ENCODING 98
SWIDTH 410 0
DWIDTH 11 0
BBX 8 20 2 0
BITMAP
80
80
80
80
80
80
BC
C2
81
81
81
81
81
81
81
81
81
81
C2
BC
ENDCHAR
STARTCHAR c
ENCODING 99
SWIDTH 384 0
DWIDTH 11 0
BBX 8 15 2 0
BITMAP
3C
42
81
81
80
80
80
80
80
80
80
81
81
42
3C
ENDCHAR
STARTCHAR d
ENCODING 100
SWIDTH 410 0
DWIDTH 11 0
BBX 9 20 1 0
BITMAP
0100
0100
0100
0100
0100
3D00
4300
8100
8100
8100
8100
8100
8100
8100
8100
8100
8100
8180
4300
3D00
ENDCHAR
STARTCHAR e
ENCODING 101
SWIDTH 391 0
DWIDTH 11 0
BBX 8 15 2 0
BITMAP
3C
42
81
81
81
81
81
FF
80
80
80
81
81
42
3C
ENDCHAR
STARTCHAR f
ENCODING 102
SWIDTH 264 0
DWIDTH 7 0
BBX 5 20 1 0
BITMAP
18
20
40
40
40
40
40
40
40
40
40
F0
40
40
40
40
40
40
40
40
ENDCHAR
STARTCHAR g
ENCODING 103
SWIDTH 397 0
DWIDTH 11 0
BBX 9 20 1 -5
BITMAP
3C00
4300
8100
8100
8100
8100
8100
8100
8100
8100
8100
8100
8180
4300
3D00
0100
0100
0100
0200
1C00
ENDCHAR
STARTCHAR h
ENCODING 104
SWIDTH 411 0
DWIDTH 12 0
BBX 8 20 2 0
BITMAP
80
80
80
80
80
9C
A2
C1
81
81
81
81
81
81
81
81
81
81
81
81
ENDCHAR
STARTCHAR i
ENCODING 105
SWIDTH 201 0
DWIDTH 6 0
BBX 1 20 3 0
BITMAP
80
80
00
00
00
00
80
80
80
80
80
80
80
80
80
80
80
80
80
80
ENDCHAR
STARTCHAR j
ENCODING 106
SWIDTH 190 0
DWIDTH 5 0
BBX 2 25 2 -5
BITMAP
40
40
00
00
00
00
40
40
40
40
40
40
40
40
40
40
40
40
40
40
40
40
40
80
80
ENDCHAR
STARTCHAR k
ENCODING 107
SWIDTH 379 0
DWIDTH 11 0
BBX 8 20 2 0
BITMAP
80
80
80
80
80
80
82
84
84
88
98
A4
A4
C4
82
82
82
81
81
81
ENDCHAR
STARTCHAR l
ENCODING 108
SWIDTH 165 0
DWIDTH 5 0
BBX 1 20 2 0
BITMAP
80
80
80
80
80
80
80
80
80
80
80
80
80
80
80
80
80
80
80
80
ENDCHAR
STARTCHAR m
ENCODING 109
SWIDTH 678 0
DWIDTH 19 0
BBX 15 15 2 0
BITMAP
1830
A448
C284
8102
8102
8102
8102
8102
8102
8102
8102
8102
8102
8102
8102
ENDCHAR
STARTCHAR n
ENCODING 110
SWIDTH 411 0
DWIDTH 12 0
BBX 8 15 2 0
BITMAP
18
A4
C2
81
81
81
81
81
81
81
81
81
81
81
81
ENDCHAR
STARTCHAR o
ENCODING 111
SWIDTH 398 0
DWIDTH 11 0
BBX 8 15 2 0
BITMAP
3C
42
81
81
81
81
81
81
81
81
81
81
81
42
3C
ENDCHAR
STARTCHAR p
ENCODING 112
SWIDTH 416 0
DWIDTH 12 0
BBX 8 20 2 -5
BITMAP
1C
A2
C1
81
81
81
81
81
81
81
81
81
C1
A2
9C
80
80
80
80
80
ENDCHAR
STARTCHAR q
ENCODING 113
SWIDTH 416 0
DWIDTH 12 0
BBX 9 20 2 -5
BITMAP
3800
4500
8300
8100
8100
8100
8100
8100
8100
8100
8100
8100
8180
4300
3D00
0100
0100
0100
0100
0100
ENDCHAR
STARTCHAR r
ENCODING 114
SWIDTH 274 0
DWIDTH 8 0
BBX 5 14 2 0
BITMAP
B8
C0
80
80
80
80
80
80
80
80
80
80
80
80
ENDCHAR
STARTCHAR s
ENCODING 115
SWIDTH 352 0
DWIDTH 10 0
BBX 8 15 1 0
BITMAP
1C
22
41
81
80
40
20
10
0C
06
01
81
81
42
3C
ENDCHAR
STARTCHAR t
ENCODING 116
SWIDTH 285 0
DWIDTH 8 0
BBX 5 18 2 0
BITMAP
40
40
40
40
40
40
40
40
40
F0
40
40
40
40
40
40
60
18
ENDCHAR
STARTCHAR u
ENCODING 117
SWIDTH 411 0
DWIDTH 12 0
BBX 8 14 2 0
BITMAP
81
81
81
81
81
81
81
81
81
81
81
83
45
39
ENDCHAR
STARTCHAR v
ENCODING 118
SWIDTH 345 0
DWIDTH 10 0
BBX 7 14 2 0
BITMAP
82
82
82
82
44
44
44
44
28
28
28
28
10
10
ENDCHAR
STARTCHAR w
ENCODING 119
SWIDTH 571 0
DWIDTH 16 0
BBX 13 14 2 0
BITMAP
8208
8208
8508
8508
4510
4890
4890
4890
4890
3060
3060
3060
1040
1040
ENDCHAR
STARTCHAR x
ENCODING 120
SWIDTH 250 0
DWIDTH 7 0
BBX 7 14 0 0
BITMAP
82
82
44
44
28
28
10
10
28
28
44
44
82
82
ENDCHAR
STARTCHAR y
ENCODING 121
SWIDTH 335 0
DWIDTH 9 0
BBX 7 19 1 -5
BITMAP
82
82
82
82
44
44
44
44
28
28
28
28
18
10
10
10
20
20
60
ENDCHAR
STARTCHAR z
ENCODING 122
SWIDTH 353 0
DWIDTH 10 0
BBX 7 15 2 0
BITMAP
FE
02
04
04
08
08
10
10
20
20
40
40
80
80
FE
ENDCHAR
STARTCHAR braceleft
ENCODING 123
SWIDTH 231 0
DWIDTH 6 0
BBX 4 24 1 -2
BITMAP
10
30
40
40
40
40
40
40
40
40
40
40
80
40
40
40
40
40
40
40
40
40
40
40
ENDCHAR
STARTCHAR bar
ENCODING 124
SWIDTH 119 0
DWIDTH 3 0
BBX 1 24 1 -2
BITMAP
80
80
80
80
80
80
80
80
80
80
80
80
80
80
80
80
80
80
80
80
80
80
80
80
ENDCHAR
STARTCHAR braceright
ENCODING 125
SWIDTH 231 0
DWIDTH 6 0
BBX 5 24 1 -2
BITMAP
80
60
60
20
20
20
20
20
20
20
20
20
08
20
20
20
20
20
20
20
20
20
20
20
ENDCHAR
STARTCHAR asciitilde
ENCODING 126
SWIDTH 444 0
DWIDTH 12 0
BBX 11 3 1 7
BITMAP
7820
C440
01C0
ENDCHAR
STARTCHAR exclamdown
ENCODING 161
SWIDTH 235 0
DWIDTH 7 0
BBX 2 19 3 1
BITMAP
C0
C0
00
00
00
00
80
80
80
80
80
80
80
80
80
80
80
80
80
ENDCHAR
STARTCHAR degree
ENCODING 176
SWIDTH 358 0
DWIDTH 10 0
BBX 9 9 1 14
BITMAP
1C00
2200
4100
8080
8080
8080
4100
2200
1C00
ENDCHAR
STARTCHAR ordmasculine
ENCODING 186
SWIDTH 272 0
DWIDTH 10 0
BBX 9 9 1 14
BITMAP
1C00
2200
4100
8080
8080
8080
4100
2200
1C00
ENDCHAR
STARTCHAR questiondown
ENCODING 191
SWIDTH 330 0
DWIDTH 9 0
BBX 8 20 1 -6
BITMAP
18
18
00
00
00
08
08
08
08
18
20
60
40
41
81
81
41
42
42
3C
ENDCHAR
ENDFONT
